<svg width="587" height="691" viewBox="0 0 587 691" fill="none" xmlns="http://www.w3.org/2000/svg"><path fill="#fff" fill-opacity=".6" d="M136 331h120v360H136zM272 451h120v240H272zM407.907 515h120v176h-120z"/><path d="M446.5 74c-56.787-59.55-157.502-46.5-227.002 18-9.698 9-77.998-45-144 0-81.499 41-71.998 165 30.5 239 73.661 46.98 113.764 41.277 183-35.5 90 75 181 105 266 20 60-74 31.219-177.892-69.5-160.5-56.822 9.306.658-46.773-38.998-81z" fill="#E9E9E9"/><ellipse cx="185" cy="69" rx="54" ry="39" fill="#F2F2F2"/><ellipse cx="347" cy="39" rx="54" ry="39" fill="#F2F2F2"/><ellipse cx="492" cy="100" rx="54" ry="39" fill="#F2F2F2"/><path d="M477 94.108c0 8.382 7.835 16.038 14.169 23.892 8.031-10.626 19.457-9.438 20.763-20.262 1.178-9.768-13.19-14.85-17.825-3.63-.849-12.078-17.107-12.21-17.107 0z" fill="#2D2E33"/><path d="M317.947 55.406c4.545-4.2 8.196-6.125 18.208-8.19 5.969-.835 8.151-.298 10.837 1.724 2.503-4.325 4.639-5.53 9.104-5.604 4.538 1.224 6.178 1.258 7.37 0 8.84-2.265 10.639-.805 13.439 2.155 1.631 2.597 1.277 3.867 0 6.035-4.769 4.743-16.391 1.376-17.341 4.743v1.293c-3.576.925-3.956 2.981-3.461 4.692 3.624 4.465.766 2.646 0 0-.328-.404-.709-.86-1.15-1.372-18.609-3.875-26.625-5.032-37.006-5.476z" fill="#FFE500"/><path fill-rule="evenodd" clip-rule="evenodd" d="M317.567 55.785c2.279-2.814 3.637-4.491 2.571-8.63-.419-.56-.831-1.083-1.221-1.58-2.05-2.604-3.516-4.468-2.512-7.14 3.862-4.862 4.74-7.031 3.733-9.77-1.613-3.701-1.731-5.479 1.38-8.236 6.074-5.426 9.274-6.26 14.932-7.187 9.991-.896 12.348 3.413 16.278 10.597l.52.95c1.352 3.645-.443 5.1-4.463 7.51-3.822 3.117-.748 5.456 3.315 8.547 1.028.782 2.119 1.612 3.177 2.514 4.345 3.48 2.153 6.023-.54 9.146-.956 1.108-1.975 2.29-2.787 3.612-.587 2.89 1.381 4.097 5.518 6.137-27.755-7.412-32.133-6.962-39.669-6.188l-.501.051.269-.333zm10.139-22.674c1.624.331 3.364-1.454 3.887-3.988.522-2.534-.372-4.856-1.997-5.188-1.624-.331-3.364 1.454-3.886 3.988-.522 2.534.371 4.857 1.996 5.188zm14.022-3.968c-.522 2.534-2.262 4.32-3.887 3.988-1.624-.331-2.518-2.654-1.996-5.188.522-2.534 2.262-4.319 3.887-3.987 1.624.33 2.518 2.654 1.996 5.187zM327.219 39.64c2.633-2.596 4.298-4.238 14.344-.155 3.948 2.386 3.782 3.866 1.542 6.622-.406 3.472-11.352-1.727-16.555-5.814.233-.222.454-.44.669-.653z" fill="#2D2E33"/><path d="M169.028 91.227c17.25 1.077 26.673.983 43.206 0-2.58-18.827-39.337-20.991-43.206 0z" fill="#F5D402"/><path d="M179.561 48.595c5.845-4.254 9.33-5.335 16.551-4.977-8.697-5.242-12.249-3.96-16.551 4.977zM178.916 49.028c-9.255-.354-13.278 1.49-18.916 7.574 2.579-12.118 11.178-15.797 18.916-7.574zM198.262 36.26c10.669-5.86 17.376-6.254 30.738-.866-10.318-15.364-21.71-15.364-30.738.866zM197.187 36.26c-7.617-3.62-12.028-3.969-20.42-1.515 9.999-9.317 14.193-7.63 20.42 1.515z" fill="#BBB"/><path d="M201.703 81.272c-3.64 1.736-5.544 1.689-8.813 0-.936-19.605-.372-29.546 3.654-44.363 1.353-.409 1.853-.075 2.58.866-3.739 15.33-1.761 26.524 2.579 43.497zM184.72 84.735l6.878-1.515c-2.688-14.804-4.87-22.528-10.962-34.408l-1.72 1.298c5.966 11.792 6.273 19.823 5.804 34.625z" fill="#2D2E33"/><path d="M211.804 54.655c-3.39-10.102-6.346-14.096-13.542-18.178 14.45-.216 16.512 4.492 13.542 18.178zM197.617 35.395c1.086-7.98 3.201-12.095 11.392-18.395-12.467 0-18.056 7.79-11.392 18.395zM196.757 36.477c-8.35 2.117-11.053 3.708-13.972 6.925 1.075-8.657 5.374-10.388 13.972-6.925zM179.991 48.812c7.191-.413 9.923.916 13.757 4.544-3.374-8.379-6.255-9.788-13.757-4.544zM169.243 38.208c5.822 3 8.029 5.248 10.103 10.17 2.351-8.341.043-10.478-10.103-10.17zM173.972 62.012c-.153-5.167.598-7.965 5.374-12.551-8.383.649-9.762 5.166-5.374 12.551z" fill="#FFE500"/><path d="M339.501 238c17.999 15 7.498 32-9.5 41 0 0-22.999 18.5-48 20s-32.446-7.26-51-22.5c-12.501-21-9.471-41.254 6.5-56 17-9.5 8.999-41 17-50.5 10.499-9.5 26.708-12.088 31-8 4.292 4.087 7.086 4.815 13 2 17.999 2 10.499 22 21.5 29 12.685 9.696 15.827 15.733 15 27.5-3.003 10.595-1.858 14.302 4.5 17.5z" fill="#263238"/><path d="M441.5 406l7.5-14-14-7c-3.78-.122-11 3-17 3-23.836-9.332-35.81-15.043-50.5-27.5-5.633-19.014-8.527-28.931-17-56L347 295l-24-29.5c-18.079-2.746-25.322-4.734-27-10v-13c29.5-4 25-57.5 0-68.5-2.731 4.237-5.448 6.212-12 9-10.502 3.033-13.631 5.541-12.5 12 .933 8.161.24 11.83-5.5 15-11.341-5.666-17.5 5-1 15 4.464 6.29 6.747 8.921 11.5 12 .118 11.443-.358 17.618-6 26.5-5.925-.352-9.043-.376-14 0l-28 37.5c-7.217 47.129-11.862 66.578-23 69-17.653 8.246-26.868 12.169-42 18l-15-3-14.5 7 7.5 14 15-4c7.406-.332 10.977-1.43 16-5.5 21.655-3.36 31.355-7.154 46-16 16.215-8.164 20.835-27.452 27.5-67l10.5-9 22 145.5c5.454 5.354 6.12 9.036 2.5 17-3.839 13.056 8.5 9 14.5-4 2.232-9.312 3.071-15.926 7-19.5 6.769 9.928 7 23.5 12.5 28 7.5 4.5 10.915 4.001 10-1l-3-13.5c1.576-3.789 2.375-6.023 6-7v-19l-11.5-43 20.5-57c6.5 13.5 3.5 54 74 65.5 3.959 4.703 8.049 5.258 16 5.5l14.5 4z" fill="#D89A89"/><path d="M366 380.5l-32.999.5c-.078 5.208-.433 6.612-1.5 7-36.156.293-51.303.125-81 0v-7l-33.501.5c-11.909 6.356-20.5 10-37.5 13.5-4.223 26.728.33 36.015 14.501 45 19.158 5.314 37.224 6.934 68.5 10l16.5-26 9.5 3-1.5 3.5c7.24-3.275 12.505-3.458 16.999-1.279 6.24-2.528 11.534-1.902 18.001 1.279v-3l9.5-5 12.5 27.5c19.5-7 81.499 4.5 73.5-49.5-2.676-1.098-4.08-2.038-6.501-4-20.911-4.49-30.601-7.886-45-16z" fill="#263238"/><path d="M219.5 295c8.5-20 11.5-31 36.5-31 22.5 48.5 92 44.5 67 1l12.5 1.5c9.554 1.276 11.421 17.062 17 35.5l-13 9.5c-3.309 29.152-5.148 44.072-9 68H251c1.33-28.037.258-42.218-4.5-65l-27-19.5zM322 427.5l9.5-5L345 452l-16 1.5c-4.116-10.418-7.356-16.437-7-26zM262 450l17-26 9.5 3c-3.226 11.473-6.506 17.601-12.5 28.5l-14-5.5z" fill="#FFE500"/><path d="M332.001 388c.722-1.91.944-3.807 1-9h-81c-2.176 1.639-2.179 4.196-2 9h82z" fill="#AFA544"/><ellipse cx="284.5" cy="519.5" rx="103.5" ry="7.5" fill="#000" fill-opacity=".2" filter="url(#a)"/><ellipse cx="214.5" cy="205" rx="5.5" ry="4" fill="#F2F2F2"/><ellipse cx="239.5" cy="156" rx="5.5" ry="4" fill="#F2F2F2"/><ellipse cx="293.5" cy="138" rx="5.5" ry="4" fill="#F2F2F2"/><ellipse cx="352.5" cy="160" rx="5.5" ry="4" fill="#F2F2F2"/><ellipse cx="182" cy="193.5" rx="19" ry="13.5" fill="#F2F2F2"/><ellipse cx="216" cy="128.5" rx="19" ry="13.5" fill="#F2F2F2"/><ellipse cx="305" cy="101.5" rx="19" ry="13.5" fill="#F2F2F2"/><ellipse cx="389" cy="130.5" rx="19" ry="13.5" fill="#F2F2F2"/><ellipse cx="111" cy="164" rx="54" ry="39" fill="#F2F2F2"/><path d="M95.323 145.344c-32.48 34.99 30.851 66.201 39.677 21.583-20.653 28.377-51.107 0-39.677-21.583z" fill="#FFE500"/><path d="M130.61 158.134l-8.138-6.831-8.933 6.831 3.255 10.828h10.308l3.508-10.828zM118.675 146.035l5.317-1.781c-5.432-3.229-8.845-4.321-15.951-4.251l1.809 3.452 8.825 2.58zM105.727 155.7l-2.677-8.539-9.584 2.253-2.75 9.919 7.126 4.651 7.885-8.284zM87.787 164.492l-1.447-2.507c-.825 5.782-.27 8.924 3.002 14.57l.76-1.562-2.315-10.501zM100.41 172.849l-4.63 6.213 8.138 7.667 8.934-3.016-2.062-7.739-10.38-3.125zM120.99 184.149l-.573 3.161c5.174-2.22 7.57-5.168 11.568-10.755l-3.943.945-7.052 6.649z" fill="#2D2E33"/><path d="M466 87.864c0 3.556 3.358 6.804 6.072 10.136 3.442-4.508 8.339-4.004 8.899-8.596.505-4.144-5.653-6.3-7.64-1.54-.363-5.124-7.331-5.18-7.331 0zM503 83.864c0 3.556 3.358 6.804 6.072 10.136 3.442-4.508 8.339-4.004 8.899-8.596.505-4.144-5.653-6.3-7.64-1.54-.363-5.124-7.331-5.18-7.331 0zM496 106.864c0 3.556 3.358 6.804 6.072 10.136 3.442-4.508 8.339-4.004 8.899-8.596.505-4.144-5.653-6.3-7.64-1.54-.363-5.124-7.331-5.18-7.331 0z" fill="#FFE500"/><path fill="#fff" fill-opacity=".6" d="M0 285h120v406H0z"/><defs><filter id="a" x="173" y="504" width="223" height="31" filterUnits="userSpaceOnUse" color-interpolation-filters="sRGB"><feFlood flood-opacity="0" result="BackgroundImageFix"/><feBlend in="SourceGraphic" in2="BackgroundImageFix" result="shape"/><feGaussianBlur stdDeviation="4" result="effect1_foregroundBlur_1177:1107"/></filter></defs></svg>