<svg width="602" height="693" viewBox="0 0 602 693" fill="none" xmlns="http://www.w3.org/2000/svg"><path d="M167 684.5c-293.05-11.699-56.765-34.008-103-71-75.234-27.937 45-32 45-43s-2.501-8.5-80.5-17c-78-8.5 21.5-32 138.5-24s10 15 68.5 19.5 104.999-50 303.499-19.5C737.5 560 229.975 545.896 498 626s-37.951 70.199-331 58.5z" fill="#fff"/><path d="M370.727 251.857c-.89 11.627 1.012 15.197 4.617 21.302-4.199 29.835.838 42.262 4.616 67.458 4.633 12.419 15.713 11.359 39.24 5.917 13.324-10.483 25.41-20.833-13.849-62.724 3.951-17.992 4.065-30.116-15.004-31.953-9.4-5.513-14.302-7.372-19.62 0z" fill="#C4C4C4"/><path d="M402.928 299.082c15.713 3.211 18.887 8.832 16.209 24.305-3.461 7.496-5.658 12.726-10.42 25.462-2.792 6.466-5.804 8.279-12.736 9.259H375.14v-6.944c.816-6.536 1.426-11.855 1.919-17.029-.473 4.519-1.081 9.157-1.919 14.714-10.59 7.13-14.658 8.327-15.051 0-1.491-10.082-1.413-17.91 0-34.721 4.286-10.542 8.092-14.279 18.525-15.046 8.636 3.436 13.972 3.549 24.314 0z" fill="#D2D2D2"/><path d="M400.614 358.108h-25.472c-18.09 43.187-2.396 95.039 10.42 171.291 0 0 2.316 0 5.789-3.472 2.448-3.472-8.03-70.496-8.104-121.524 2.16 52.409 4.796 79.593 11.578 124.996 3.329 2.071 4.857 2.062 8.104 0 10.564-99.666 8.651-133.174-2.315-171.291z" fill="#B3B1B1"/><path d="M376.3 270.148c9.932-4.892 14.305-5.142 19.682 0 4.632-3.473 6.947 8.101 2.316 10.416-2.392 2.544-2.182.301-2.316 9.259 0 0-.932.466-2.315 1.102-.682.313 5.474 8.953 4.631 9.314-.45 1.051-11.225 1.953-11.578 1.157-1.156.473 1.116-8.031 0-7.673-1.364.437-2.601.729-3.474.729-3.473 0-4.631-9.259-4.631-9.259-.194.118-1.707-6.244-2.315-5.777v1.148c-.087.329-.17.654-.252.976.009 1.089.085 2.649.252 4.811-.995 4.093 2.874 17.136 2.315 23.147-1.09-3.129-2.245-3.896-5.789-2.315.615-11.732 1.246-17.83 3.222-25.643-.011-1.377.088-1.998.252-2.124v-9.268z" fill="#fff"/><path d="M404.086 529.399h-6.947l-8.104 10.417c1.184 2.987 2.486 2.836 5.789 0 5.022-4.065 7.013-6.344 9.262-10.417zM391.35 529.399h-6.947c-5.407 1.19-6.681 3.056-8.104 6.944 6.854-1.461 10.3-2.824 15.051-6.944z" fill="#999"/><path d="M119.658 540.806l-15.229-16.352c3.545-2.672 5.983-2.144 10.543 0 4.346 5.332 5.578 8.429 7.028 14.016-.427 2.086-.457 2.642-2.342 2.336zM70.458 543.142c2.548-8.31 4.496-12.178 8.2-18.688-1.911-1.109-3.543-1.199-8.2 0-5.078 8.678-5.002 11.486-4.686 16.352 1.33 4.056 2.517 3.521 4.686 2.336z" fill="#777"/><path d="M92.245 362.101l-28.115 2.336c-6.286 60.905-1.902 94.375 4.686 154.177 3.713 3.865 5.924 4.143 10.543 0 2.416-38.387 3.67-60.386 4.686-106.289 7.51 47.067 11.926 69.155 19.914 106.289 4.125 3.64 6.409 3.456 10.542 0-8.199-63.073 2.129-114.616-22.257-156.513z" fill="#999"/><path d="M93.838 364.437c-10.555 2.378-17.104 2.352-29.285 1.168-.17-1.647-.5-3.194-.96-4.672-.061-.197 7.226-4.18 14.52-8.167l14.55-8.185c-.143-.393-24.118 13.567-29.925 14.016-5.806.449-16.71-19.166-21.614-39.712-2.452-7.213-1.064-12.667 5.854-16.888.72-.439 2.723-1.387 3.565-1.8 3.486 4.533 6.429 8.355 8.89 11.549l-5.42-8.427c-1.53-2.168-2.477-3.599-2.35-3.652 2.628-1.081 5.739-2.068 9.374-2.974l29.287-1.168c26.943 0 19.911 26.864 26.943 52.56 1.58 8.353-5.379 7.926-23.429 3.504v12.848z" fill="#DDD"/><path d="M65.768 283.845c-5.516-.1-7.82-2.412-10.543-10.512-2.803-12.143.538-17.006 21.086-19.856 3.514-9.344 16.403 10.512 3.514 14.016-1.512 13.129-2.243 15.343-3.514 16.352-3.048 3.545-5.242 3.925-10.543 0z" fill="#C4C4C4"/><path d="M78.366 267.839c-8.018-4.356-11.581-3.816-15.228 4.672-5.86-2.336-5.86 7.008 0 7.008l2.343 4.672v15.184c8.916 4.333 13.177 3.166 19.034-2.682-7.746-2.87-10.584-4.31-10.835-7.83 4.305 1.524 6.083 1.729 7.03 0-2.345-5.84 2.34-15.185-2.344-21.024zM91.25 343.759l-1.171-10.512c9.309-3.169 11.447-2.014 12.885 2.336-1.33 3.751-4.455 5.446-11.714 8.176zM73.68 339.087l-3.516 4.672c-5.377-.718-5.994-1.753-10.542-11.68 3.187 1.509 1.49 1.23 3.516-1.168 2.24-1.541-1.173-5.84 2.343-8.176 5.413 4.059 6.684 8.179 8.2 16.352zM112.629 525.622v-5.84c-1.538 1.599-4.686 2.336-7.029 0l1.171 5.84c3.333 1.397 4.722 1.571 5.858 0zM76.314 525.622l1.172-5.84c-2.343 2.336-5.857 2.336-7.029 0l-.292 5.84c1.831 1.513 3.21 1.437 6.15 0z" fill="#fff"/><ellipse cx="275.5" cy="656.5" rx="128.5" ry="7.5" fill="#000" fill-opacity=".2" filter="url(#a)"/><path d="M222 617l-11-21.5h-21l6.5 8.5 9.5 15c-22.483 18.929-31 23-37 35.5 7 3.5 2.128 3.348 57-24 5-2.492 6-8.5-4-13.5zM347 552l-13.5-10-9.5 18 23 8c15.614 27.015 21.631 33.524 27 27.5-7.911-13.691-10.967-23.582-15-43.5-1.968-5.173-5.255-3.919-12 0z" fill="#D89A89"/><path d="M176.036 194.811c-21.267 9.831-15.524 28.969-1.435 42.062 0 0 17.427 23.822 41.188 31.742 23.761 7.919 33.22 1.384 55.086-8.534 17.51-17.049 19.826-37.397 8.215-55.774-13.962-13.576 1.919-41.932-3.35-53.179-7.683-11.894-22.67-18.588-27.874-15.751-5.203 2.837-8.091 2.817-13.074-1.433-17.903-2.726-15.835 18.533-28.273 22.447-14.762 6.083-19.36 11.101-21.607 22.681.159 11.012-1.907 14.296-8.876 15.739z" fill="#263238"/><path d="M270.137 282.535l-10.5-9L250.343 335h-54.897l-10.809-56.836c-3.5 2-5 0-5-8.129l-10.5-6 24-29.5c18.079-2.747 25.322-4.734 27-10v-13l19.5-5.5c-.119 11.443.357 17.618 6 26.5 5.925-.352 9.043-.376 14 0l28 37.5c7.217 47.128 11.862 66.578 23 69 17.653 8.246 26.868 12.169 42 18l15-3 14.5 7-7.5 14-15-4c-7.406-.332-10.977-1.431-16-5.5-21.656-3.36-31.355-7.154-46-16-16.215-8.164-20.836-27.452-27.5-67zM107.898 82.286l15.464-3.62L126.5 94c-.861 3.683-5.745 9.849-7.298 15.644 2.845 25.439 10.568 44.442 18.798 61.856l45.637 54.664 5.305 6.253-19.305 14.747C134.137 221.5 100.5 149.5 109.18 114.206c-3.518-5.041-2.995-9.136-1.171-16.878l-.111-15.042z" fill="#D89A89"/><path d="M254.385 202.748c-5.94 4.921-8.826 6.87-14.214 8.615l-20.259.265c-27.46-11.498-9.266-62.011 17.729-66.165 1.541 4.799 3.654 7.41 9.262 11.799 9.358 5.648 11.732 8.88 8.968 14.826-3.014 7.641-3.294 11.365 1.43 15.912 12.421-2.537 15.61 9.359-2.916 14.748z" fill="#D89A89"/><path d="M296.637 264.035c-8.5-20-11.5-31-36.5-31-22.5 48.5-86.5 43.5-61.5 0l-20.5-11.871c-9.554 1.276-13 11.871-18 19.5L172.5 279.5c3.309 29.152 9.285 45.107 13.137 69.035h79.5c-1.33-28.038-.258-42.218 4.5-65l27-19.5z" fill="#FFE500"/><path d="M184.136 357.035c-.722-1.91-.944-3.808-1-9h81c2.176 1.638 2.178 4.196 2 9h-82z" fill="#AFA544"/><path d="M167 498.5c-1.976-45.924-7.464-67.224 19.5-142.5H266c18.472 44.651 15.502 72.586 7.5 123l70.5 60-20.5 28.5-85-69c-7.502-24.007-15-38-19-72-4.5 27.5-15 44-19 68 16.627 28.933 15.889 62.365 21 111l-35 7-19.5-114z" fill="#263238"/><path d="M223.5 605.5V590l-41 6 3.5 16.5c14.482-2.338 22.66-3.846 37.5-7zM336 530.5L308 559l15 10 23-29.5-10-9zM152.786 2.156l-27.285 20.693a2 2 0 0 1-1.707.343L90.06 14.505c-1.552-.4-2.92 1.097-2.384 2.607l11.995 33.731a2 2 0 0 1-.232 1.796L81.13 79.507c-.904 1.328.047 3.126 1.653 3.126h34.858c.578 0 1.128.25 1.507.686l21.677 24.876c1.048 1.202 3.011.756 3.436-.781l8.636-31.238a2 2 0 0 1 1.164-1.316l31.785-13.124c1.412-.583 1.675-2.47.476-3.418l-26.319-20.792a2.002 2.002 0 0 1-.751-1.37L155.985 3.55c-.156-1.554-1.954-2.338-3.199-1.394z" fill="#FFE500"/><defs><filter id="a" x="139" y="641" width="273" height="31" filterUnits="userSpaceOnUse" color-interpolation-filters="sRGB"><feFlood flood-opacity="0" result="BackgroundImageFix"/><feBlend in="SourceGraphic" in2="BackgroundImageFix" result="shape"/><feGaussianBlur stdDeviation="4" result="effect1_foregroundBlur_1174:1079"/></filter></defs></svg>