<svg width="32" height="32" viewBox="0 0 32 32" fill="none" xmlns="http://www.w3.org/2000/svg"><path fill-rule="evenodd" clip-rule="evenodd" d="M2.525 12.904C.085 3 6.615.992 12.525 2.404c9.501-.5 18.501 3.5 17 17.5 2.435 6.543-3.62 11.976-10 9.5-11.499 1-17.999-5-17-16.5zm17.074-1c1.012 1.5 4.5 1 4-1.5-.032-1.551-3-4.5-7.5-4.5-6 0-8 4-8 6 0 3.097 3.469 3.945 6.676 4.73 2.758.675 5.323 1.302 5.324 3.27 0 1-1.5 2.5-4 2.5-2.413 0-3.432-1.723-4.138-2.916-.318-.537-.573-.968-.863-1.084-2.5-1-4 1.5-2.5 3.5l.27.331c1.592 1.968 2.968 3.67 7.23 3.67 3.5 0 7-1.5 8-4.5.5-1.5.285-2.67-.5-4.5-.836-1.953-4.161-2.66-6.939-3.252-2.202-.469-4.06-.864-4.06-1.749-.5-1 1-2.5 3.5-2.5 1.84 0 2.493.985 3.288 2.184l.212.316z" fill="#333"/></svg>