<svg width="435" height="390" viewBox="0 0 435 390" fill="none" xmlns="http://www.w3.org/2000/svg"><ellipse rx="217.5" ry="18.66" transform="matrix(-1 0 0 1 217.5 371.34)" fill="#fff"/><path d="M134.421 373.615l11.201-41.986-14.935-3.732-3.734 45.718h7.468zM169.893 355.888l7.468-22.393-11.202-5.598-1.867 27.991h5.601zM272.575 355.888l-6.534-24.259 11.202-3.732 1.867 27.991h-6.535zM312.715 373.615l-16.803-43.852 16.803-1.866 6.534 45.718h-6.534z" fill="#333"/><path d="M291.244 231.797l24.271 16.794 54.141-54.115c-16.136-9.834-29.617-15.356-41.073-13.979v-34.538c-1.244-10.428-5.453-14.632-20.536-18.66-61.968-6.407-96.708-6.182-158.691 0-17.286 1.187-19.873 6.713-21.47 18.66l-1.127 34.538-52.081 13.979 32.671 49.45 35.473-12.129c79.55-3.829 102.721-4.159 148.422 0z" fill="#B2B1B1"/><path d="M308.173 289.644c7.759-72.789 14.968-107.378 61.609-95.168 10.383 40.309-1.889 70.307-33.605 127.823-5.208 11.368-10.657 13.964-23.337 13.995H133.613c-12.154 1.335-18.614-1.51-28.938-13.995-42.07-86.447-40.118-103.852-30.805-127.823 50.09-17.947 47.962 34.218 59.743 95.168 67.358 5.268 105.506 5.82 174.56 0z" fill="#D2D2D2"/><path d="M129.753 249.524c4.056 23.5 3.783 22.248 8.527 37.321 64.156 4.673 100.139 5.404 164.292 0 5.465-15.531 6.142-16.995 5.601-40.12-.698-29.857-171.814-27.058-178.42 2.799z" fill="#D2D2D2"/><path d="M108.441 91.082c-21.035 17.536-8.714 37.353 11.195 47.822 0 0 26.95 21.543 56.21 23.246 29.261 1.704 37.958-8.533 59.642-26.35 14.59-24.527 11.006-48.154-7.712-65.33-19.913-11.053-10.609-47.824-19.99-58.894C195.482.511 176.508-2.478 171.493 2.3c-5.016 4.778-8.284 5.632-15.21 2.358-21.06 2.368-12.245 25.69-25.106 33.88-14.827 11.337-18.493 18.386-17.502 32.115 3.534 12.358 2.201 16.685-5.234 20.429z" fill="#263238"/><path d="M267.819 118.902c7.467 11.196-.598 18.001-12.135 19.593-11.537 1.592-64.41-30.265-82.991-34.93 11.532-3.294 20.536-10.264 29.871-10.264.15-1.305 29.793 14.075 29.783 12.539-5.532-10.275-5.717-16.624-11.113-28.4 8.018-2.38 6.586-2.173 11.201-7.464 10.665 25.459 20.884 31.913 35.384 48.926z" fill="#D89A89"/><path d="M165.225 74.641c18.497 7.555 23.51 8.874 37.339 18.66-69.958 39.464-29.795 75.394-46.586 128.756l-44.048-31.313c-2.851-23.802-3.414-40.877-2.801-76.507-3.735-25.192 2.574-33.434 21.47-33.589l34.626-6.007z" fill="#FFE500"/><path d="M146.277 44.89c-1.454 6.737-1.809 9.828-.971 14.818l8.143 16.167c20.442 17.027 52.997-18.212 45.161-41.322-4.441.757-7.384.157-13.176-2.478-8.338-5.09-11.88-5.64-15.456-.998-4.817 5.537-7.654 7.294-13.209 5.424-3.109-10.891-13.858-8.515-10.492 8.39z" fill="#D89A89"/><path d="M283.776 225.265l-14.002-22.392-21.47 5.598 11.202 33.589 24.27-16.795z" fill="#D89A89" filter="url(#a)"/><path d="M129.753 193.164c11.773-8.165 19.179-11.071 35.472-13.062 15.227-29.057 26.896-43.531 49.474-72.845 6.535-8.398 23.337-12.613 31.739 0l24.27 97.966c-6.766 6.847-6.313 11.059-17.736 12.129-16.803-31.722-39.1-50.81-42.006-81.102.695 14.994 4.468 24.799 14.935 43.852-7.355 52.495-15.078 70.563-31.738 72.775-28.938 4.665-63.648 9.752-64.41-59.713z" fill="#0D1017"/><path d="M269.973 221.136c6.948-3.9 9.638-3.592 13.069 0l23.337 14.917c6.206 4.692 8.879 5.547 10.816 11.196 2.173 7.272-15.146 12.033-24.27 14.928-14.699.763-7.574-1.181-16.802-6.531-12.341-6.448-13.068-14.928-13.068-14.928s-4.163-6.876 6.918-19.582z" fill="#F2F2F2"/><path d="M256.52 230.455c7.283-3.733 9.638-3.592 13.069 0l23.337 20.526c6.206 4.692 9.265 7.413 11.202 13.062 2.172 7.272-2.078 9.234-11.202 12.129-14.699.763-21.577-.248-30.805-5.598-12.342-6.448-18.879-10.744-29.871-19.593-2.615-2.106-9.898-9.33 1.119-12.129 23.522 16.794 9.334 3.732 23.151-8.397z" fill="#fff"/><path d="M263.24 227.655l-10.268-16.385-21.47 5.598c14.936 14.52-9.335 24.783 12.135 34.113 6.441 2.799 2.801-19.593 19.603-23.326z" fill="#D89A89"/><path d="M109.217 192.61c11.773-8.165 19.179-11.071 35.472-13.062 15.227-29.057 23.162-45.327 45.74-74.641 6.534-8.398 21.47-7.465 26.137 2.799l39.206 103.564c-6.766 6.848-11.913 9.193-23.336 10.263-16.803-31.722-39.101-55.545-42.007-85.837.696 14.994 4.468 24.799 14.936 43.852-10.99 50.703-17.775 69.236-31.738 72.775-28.938 4.665-63.648 9.752-64.41-59.713z" fill="#1F262E"/><path d="M223.101 56.39c2.583 4.804 3.989 7.508 9.335 13.586-1.867 4.665-6.016 6.021-11.202 7.464-7.463-9.318-6.362-9.818-17.736-18.251-1.695-3.295-2.41-5.514-2.801-10.263-11.781-5.752-15.717-6.189-19.603-3.732-2.48-6.144-2.404-9.187 0-13.996 4.732-4.077 7.339-6.45 14.936-5.598 9.654 2.265 14.079 8.318 20.536 25.192 3.513.788 4.867 2.1 6.535 5.598zM106.435 110.505c-3.733-19.593 2.801-31.723 27.071-28.924 22.906 15.412 43.998 18.966 80.279 26.125 14.648-.853 22.876-3.03 37.339-10.263 14 4.93 17.861 8.32 14.936 15.861-14.936 8.397-21.631 19.827-42.007 25.191-32.671-1.866-61.609-9.33-90.547-10.263 13.525 2.185 21.28 3.261 35.472 4.665-7.451 20.058-13.236 29.844-24.27 46.651-18.405 2.321-25.982 5.7-35.491 13.062-4.176-32.419-4.224-50.425-2.782-82.105z" fill="#D89A89"/><path d="M116.684 89.57l-4.667 27.057 70.545-3.36c-17.815-12.22-24.442-18.25-23.215-25.795l7.473-16.629-17.757-16.427c-6.451 14.696-10.511 22.365-21.669 31.009-6.154-3.304-5.176 6.05-10.71 4.144z" fill="#D89A89"/><path d="M106.435 110.505c-3.734-19.593 2.801-31.723 27.071-28.924 12.385 8.334 24.241 13.2 38.253 17.044.341 14.217-1.436 21.017-6.534 31.997l-31.719-2.39c13.525 2.185 21.28 3.261 35.472 4.665-7.451 20.058-13.236 29.844-24.27 46.651-18.405 2.321-25.982 5.7-35.491 13.062-4.176-32.419-4.224-50.425-2.782-82.105z" fill="#FFE500"/><path d="M144.689 180.072c.933-.933 5.6-7.464 8.401-13.995l-45.741 13.061c-1.983 2.994-.151 7.319 1.867 13.996l35.473-13.062z" fill="#AFA544"/><defs><filter id="a" x="244.305" y="202.873" width="43.472" height="47.187" filterUnits="userSpaceOnUse" color-interpolation-filters="sRGB"><feFlood flood-opacity="0" result="BackgroundImageFix"/><feColorMatrix in="SourceAlpha" values="0 0 0 0 0 0 0 0 0 0 0 0 0 0 0 0 0 0 127 0" result="hardAlpha"/><feOffset dy="4"/><feGaussianBlur stdDeviation="2"/><feComposite in2="hardAlpha" operator="out"/><feColorMatrix values="0 0 0 0 0 0 0 0 0 0 0 0 0 0 0 0 0 0 0.25 0"/><feBlend in2="BackgroundImageFix" result="effect1_dropShadow_1160:1133"/><feBlend in="SourceGraphic" in2="effect1_dropShadow_1160:1133" result="shape"/></filter></defs></svg>