<svg version="1" xmlns="http://www.w3.org/2000/svg" width="346.667" height="346.667" viewBox="0 0 260.000000 260.000000"><path d="M53.3 20.4C43.5 31.2 34.1 50 34 59.1c0 5.2 2.5 10.6 5.8 12.3 1.5.7 8.1 3 14.7 5.1 6.5 2 18.2 6.6 26 10.1 7.7 3.6 18.1 8.3 23.1 10.6l9.1 4.1-.5 17.1c-.2 9.4-.6 17.3-.7 17.4-.2.2-4.3-.1-9.2-.7-8.6-1.1-8.8-1.1-10.7 1.1-2.5 3.1-1.9 15 1.1 19.9l2 3.4 7.9-.3c4.3-.1 9-.5 10.3-.8l2.3-.5-2.5 4.3c-1.4 2.4-4.2 8.4-6.2 13.3-6 14.5-15.2 35.1-21.7 48.7-8 16.7-7.5 18.8 4.9 20.5 5.6.7 7.7-1.1 9.4-8 3.1-13.2 17.1-50.6 26.8-71.7l2.1-4.5V171c.1 29.3 3.6 68.1 6.6 72.8 1.6 2.5 6.5 3 8.3.9 2.2-2.7 3.3-16.9 3.2-44.2v-28l2.6 5c1.4 2.7 5.3 11.5 8.5 19.5 9.7 24 14.3 32.6 20.6 39 8.3 8.5 17.6 10.2 21.1 3.8 1.4-2.5 1.1-3.2-9.6-19.4-6-9.3-13.8-21.6-17.3-27.4-6.5-10.7-19-34.1-19-35.5 0-.4 4.9-.4 10.9 0 10.3.7 11 .6 12-1.3 1.8-3.3 1.3-11.8-.9-15.9-2.5-4.7-3.5-5.3-9.6-5.3h-5.2l-.5-5.8c-.2-3.1-.3-5.8-.2-6 .1-.1 5.6 2.1 12.1 4.9 16.3 7 42.2 16.9 44.3 16.9 2.2 0 4.1-1.9 4.1-4.2 0-1.1 1.8-5.2 4-9.2 6.2-11.3 5.1-17.4-4.7-26.7-7.5-7.2-10.8-9.3-29.9-19.2-10.5-5.5-28.6-16.4-43.9-26.4C116 40 106.2 34.1 91.1 26.6 79.9 21 63 14 60.6 14c-.8 0-4.1 2.9-7.3 6.4zm17.1 3.7l3.6 2.1-5 3.9c-10.3 8.2-18.2 20.8-18.2 29.1V64h-7.1l.5-4.9c.7-7.1 9.4-24.4 15.9-31.5 2.8-3.1 5.5-5.6 5.9-5.6.5 0 2.5.9 4.4 2.1z"/></svg>