<svg xmlns="http://www.w3.org/2000/svg" width="90" height="73" viewBox="0 0 90 73"><defs><style>.cls-1,.cls-2,.cls-3{fill-rule:evenodd}.cls-2{fill:#42ad58}.cls-3{fill:#e55743}</style></defs><path class="cls-1" d="M9.968 63.331C8 66.435 7.2 67.949 7.272 68.7c.032.335.113.722 1.081.632 2.547-.232 6.447-2.574 6.169-5.412-.128-1.314-1.338-1.793-4.185-1.526A10.492 10.492 0 0 0 7.623 63a1.38 1.38 0 0 0-.737.408.174.174 0 0 0-.006.085 1.252 1.252 0 0 0 .641.236 16.519 16.519 0 0 1-2.062.813.7.7 0 0 1-.413.039.471.471 0 0 1-.261-.469c-.152-1.565.164-2 1.622-2.676a11.832 11.832 0 0 1 4.193-1.112c1.182-.111 4.322-.179 4.637 3.078.429 4.46-5.237 7.346-7.958 7.598a1.053 1.053 0 0 1-1.25-1.195c-.147-1.51 2.138-4.615 3.723-7.373zm9.105 2.942a1.847 1.847 0 0 1-.024.5 4.033 4.033 0 0 1-.407 1.279.181.181 0 0 0-.032.115.3.3 0 0 0 .351.207 6.623 6.623 0 0 0 .587-.309c.114-.01.161.027.166.084a1.914 1.914 0 0 1-1.357.959.971.971 0 0 1-.285.027 2.4 2.4 0 0 1-1.765 1.195c-1.139.107-1.677-1.141-1.748-1.867-.127-1.3 1.747-3.464 3.2-3.6a.764.764 0 0 1 .822.333c.009.1-.035.229-.037.356a.692.692 0 0 1 .53.726m-1.711 2.05a2.794 2.794 0 0 1 .054-.922c.223-.811.35-.978.338-1.1a.229.229 0 0 0-.228-.12 3.4 3.4 0 0 0-1.227.975 2.219 2.219 0 0 0-.7 1.773.593.593 0 0 0 .771.534 1.985 1.985 0 0 0 1.181-.7 1.031 1.031 0 0 1-.186-.434m9.749-3.748a.87.87 0 0 1 .544.725 2.226 2.226 0 0 1-.708 1.138 2.5 2.5 0 0 0-.536 1.291.432.432 0 0 0 .489.448 1.491 1.491 0 0 0 .82-.57 1.347 1.347 0 0 1 .466-.518.13.13 0 0 1 .154.112 1.779 1.779 0 0 1-.478.849 4.026 4.026 0 0 1-2.029 1.587.662.662 0 0 1-.826-.671c-.091-.937.714-1.52 1.013-2.578-2.059 1.576-2.954 3.31-3.381 3.35a.81.81 0 0 1-.354-.828 2.742 2.742 0 0 1 .5-1.245 2.757 2.757 0 0 0 .507-1.289c-.092-.951-1.892 3.294-3.287 3.425a.831.831 0 0 1-.664-.925 2.473 2.473 0 0 1 .977-1.925.13.13 0 0 1 .136.072 4.118 4.118 0 0 0-.123 1.253.476.476 0 0 0 .122.37c.213-.02.9-1.354 1.85-2.4a9.953 9.953 0 0 1 2.049-1.829c.2-.018.459.141.517.742a1.189 1.189 0 0 1-.289.718 2.977 2.977 0 0 0-.731 1.648l.014.14c2.5-2.773 3.005-3.074 3.248-3.1m6.959 5.259c-.694 1.575-1.283 3.054-1.981 3.119-.1.01-.513.048-.625-1.112-.192-1.97.562-2.2 2.213-3.1.3-.719.625-1.413.948-2.077-1.228 1.257-1.926 1.915-2.41 1.96-.612.057-1.4-1.265-1.449-1.755-.158-1.635 3.465-3.667 4.875-3.8.385-.036.84.218.947 1.322a.716.716 0 0 1-.094.516l-1.815 3.5 2.328-1.332c.081-.05.342-.174.363.036a.248.248 0 0 1-.121.237l-2.907 1.867zm-1.908-2.346c.726-.068 3.495-2.627 3.443-3.158a.162.162 0 0 0-.183-.11 7.107 7.107 0 0 0-2.445 1.3 2.053 2.053 0 0 0-1.083 1.723.259.259 0 0 0 .092.2.253.253 0 0 0 .176.04m-.241 4.216l.023.238c.548-.121.69-.587 1.146-1.659l.316-.735a2.233 2.233 0 0 0-1.485 2.156m5.633-3.531a.788.788 0 0 1-.607-.776c-.058-.6.413-1.957.883-2 .114-.01.159.013.164.069a.626.626 0 0 1-.053.2 2.429 2.429 0 0 0-.058 1.021.416.416 0 0 0 .133.341c.2-.019.835-1.164 1.889-2.293a8.451 8.451 0 0 1 1.957-1.594.893.893 0 0 1 .457.719 5.356 5.356 0 0 1-.692 1.15 2.557 2.557 0 0 0-.507 1.29.381.381 0 0 0 .476.308c.812-.076.739-.972 1.337-1.028a.145.145 0 0 1 .129.143A4.242 4.242 0 0 1 42.157 67a2.9 2.9 0 0 1-1.481 1.168.9.9 0 0 1-.859-1.006 3.781 3.781 0 0 1 .911-2.159c-2.19 1.123-.621 2.922-3.17 3.161m10.425-4.629a.175.175 0 0 1 .059.164l.023.237a.613.613 0 0 1-.356.781 1.526 1.526 0 0 0-.73 1.211.264.264 0 0 0 .342.264 1.826 1.826 0 0 0 .828-.5.809.809 0 0 1 .38-.233c.114-.011.16.027.174.167.043.447-1.735 1.658-2.191 1.7a.6.6 0 0 1-.7-.386.848.848 0 0 1-.037-.378 3.183 3.183 0 0 1 .528-1.375 1.957 1.957 0 0 1-.583.364c-1.39 2.556-2.359 3.367-3.185 3.444a.632.632 0 0 1-.618-.154 4.071 4.071 0 0 1 .744-1.508.61.61 0 0 0 .49.166c.556-.052 1.288-1.094 1.667-1.623a2.651 2.651 0 0 1-1.124.4c-.484.044-.694.108-.819-1.18-.032-.335.033-.849 1.341-2.171a5.157 5.157 0 0 1 2.3-1.428c.484-.046.669.374.761 1.325a2.173 2.173 0 0 1-.832 1.644 6.366 6.366 0 0 0 1.533-.933m-1.546-.392c-.017-.181-.26-.159-.346-.151-.8.075-2.413 1.185-2.356 1.772a.431.431 0 0 0 .558.272 4.035 4.035 0 0 0 1.266-.273c.83-1.065.9-1.41.877-1.62m11.049-4.264c-1.969 3.1-2.77 4.618-2.7 5.373.032.336.113.723 1.081.631 2.548-.238 6.444-2.578 6.169-5.415-.128-1.314-1.337-1.793-4.184-1.527a10.5 10.5 0 0 0-2.713.607 1.375 1.375 0 0 0-.736.408.174.174 0 0 0-.006.085 1.249 1.249 0 0 0 .641.236 16.707 16.707 0 0 1-2.061.813.7.7 0 0 1-.413.038.47.47 0 0 1-.261-.469c-.152-1.566.165-2 1.622-2.677a11.859 11.859 0 0 1 4.187-1.111c1.182-.111 4.322-.178 4.638 3.079.432 4.459-5.234 7.345-7.953 7.6a1.054 1.054 0 0 1-1.251-1.195c-.147-1.51 2.138-4.615 3.724-7.373zm9.105 2.942a1.854 1.854 0 0 1-.024.5 4.023 4.023 0 0 1-.407 1.28.18.18 0 0 0-.032.115.3.3 0 0 0 .35.207c.328-.03.317-.283.588-.308.114-.011.161.027.166.083a1.918 1.918 0 0 1-1.358.959.951.951 0 0 1-.284.027 2.4 2.4 0 0 1-1.767 1.195c-1.139.107-1.677-1.141-1.747-1.867-.126-1.3 1.747-3.465 3.2-3.6a.766.766 0 0 1 .823.331c.009.1-.035.23-.037.357a.692.692 0 0 1 .53.726m-1.706 2.052a2.8 2.8 0 0 1 .054-.922c.223-.811.35-.978.338-1.1a.226.226 0 0 0-.227-.12 3.409 3.409 0 0 0-1.227.975 2.219 2.219 0 0 0-.7 1.772.593.593 0 0 0 .77.535 1.989 1.989 0 0 0 1.182-.7 1.046 1.046 0 0 1-.186-.434m9.749-3.748a.868.868 0 0 1 .545.724 2.228 2.228 0 0 1-.708 1.138 2.493 2.493 0 0 0-.535 1.292.431.431 0 0 0 .488.448 1.493 1.493 0 0 0 .821-.57 1.351 1.351 0 0 1 .468-.509.128.128 0 0 1 .154.112 1.773 1.773 0 0 1-.478.849 4.024 4.024 0 0 1-2.033 1.582.663.663 0 0 1-.827-.67c-.091-.937.715-1.52 1.013-2.578-2.059 1.575-2.953 3.31-3.381 3.349a.809.809 0 0 1-.353-.827 2.747 2.747 0 0 1 .5-1.245 2.762 2.762 0 0 0 .507-1.289c-.093-.951-1.892 3.295-3.287 3.425a.834.834 0 0 1-.665-.926 2.472 2.472 0 0 1 .977-1.924.129.129 0 0 1 .136.071 4.155 4.155 0 0 0-.123 1.253.479.479 0 0 0 .122.37c.214-.02.9-1.354 1.85-2.4a9.944 9.944 0 0 1 2.049-1.828c.2-.018.459.141.517.741a1.188 1.188 0 0 1-.289.718 2.974 2.974 0 0 0-.73 1.648l.014.14c2.5-2.773 3.005-3.074 3.248-3.1m6.117.172a2.454 2.454 0 0 1-.434 1 2.637 2.637 0 0 0-.466 1.271.5.5 0 0 0 .565.5 2.3 2.3 0 0 0 .966-.556 1.938 1.938 0 0 1 .536-.4.079.079 0 0 1 .079.077 3.47 3.47 0 0 1-.789 1.047 3.139 3.139 0 0 1-1.687 1.272.735.735 0 0 1-.841-.668 4.221 4.221 0 0 1 .412-1.83c-1.915 2.323-2.4 2.5-2.671 2.521-.526.049-.932-1.013-.99-1.615-.1-1.02.861-2.084 1.713-2.77a7.509 7.509 0 0 1 2.84-1.521.655.655 0 0 1 .747.438.934.934 0 0 1-.351.526 1.662 1.662 0 0 1 .37.713m-4.274 3.024a.331.331 0 0 0 .2-.018c.89-.3 2.806-2.308 2.754-2.854-.017-.167-.218-.163-.317-.154-1.224.114-2.964 1.575-2.86 2.652a.445.445 0 0 0 .223.374m6.025.351a1.578 1.578 0 0 1 .571-1.225.893.893 0 0 1 .817.573 1.76 1.76 0 0 1-.531 1.192.908.908 0 0 1-.857-.54m3.975-9.08a.971.971 0 0 1 .848.442c.03.308-.572.774-2.2 3.733-.892 1.607-.848 2.8-1.346 2.849a.863.863 0 0 1-.8-.8c-.1-1.077 1.891-4.48 2.777-5.719a1.046 1.046 0 0 1 .713-.5"/><path class="cls-2" d="M9.263 54.584h70.813L44.67 19.073z"/><path class="cls-3" d="M54.922 70.345a.564.564 0 0 0-.289.753.586.586 0 0 0 .769.284c5.828-2.587 18.248-5.8 28.58-4.057a.58.58 0 0 0 .671-.464.571.571 0 0 0-.473-.661c-10.59-1.79-23.3 1.5-29.257 4.142"/><path class="cls-1" d="M8.056 53.261l5.466-5.486-1.835-1.842-3.424 3.436-6.225-6.247L0 45.172zm2.253-15.138l1.375 1.38 2.836-2.847 1.643 1.65-2.837 2.846 1.754 1.76 3.507-3.519 1.643 1.648-5.55 5.573-8.06-8.088 5.551-5.574 1.644 1.648zm17.944-5.135l-5.483-1.561h.005a3.442 3.442 0 0 0-.761-3.952 3.232 3.232 0 0 0-4.588.208l-4.083 4.1 8.057 8.085 2.044-2.054-6.522-6.547 1.317-1.322a1.469 1.469 0 0 1 2.088-.039 1.486 1.486 0 0 1-.035 2.1l-1.2 1.206 6.967 1.98zm-3.691-12.83a5.506 5.506 0 0 1 8.212.086 5.555 5.555 0 0 1 .086 8.243 5.505 5.505 0 0 1-8.211-.086 5.554 5.554 0 0 1-.088-8.243m1.6 1.607c-1.278 1.283-.852 2.842.705 4.407s3.111 1.991 4.39.708.852-2.842-.706-4.407-3.112-1.992-4.39-.708m9.04-5.856l-1.5-4.567 2.386-2.393 2 7.83 3.156 3.17L39.2 22l-3.141-3.153-7.475-2.37 2.25-2.258 4.324 1.681zm37.289 27.879l8.06-8.088-2.149-2.158-8.059 8.089zM41.652 12.835l6.267-3-4.628 4.646 1.862 1.869 8.056-8.089-2.558-2.57-6.066 2.969 3.035-6.012L44.984 0l-8.056 8.09 1.862 1.87 4.628-4.645-2.992 6.285zm13.971 1.143l-1.375 1.381 3.091 3.1-1.639 1.653-3.091-3.1-1.759 1.756 3.762 3.774-1.643 1.651-5.806-5.829 8.057-8.089 5.808 5.825-1.644 1.648zm7.778 20.7l5.465 5.487 1.834-1.846-3.424-3.437 6.224-6.248-2.043-2.048zm21.708 5.6l-2.582 8.574h-.005l5.564-5.587L90 45.185l-8.057 8.084-2.525-2.534 2.2-8.833h.007l-5.507 5.526-1.86-1.867 8.054-8.086zm-23.234-7.135l1.553-5.5v.005a3.413 3.413 0 0 0 3.937-.764 3.261 3.261 0 0 0-.207-4.606l-4.337-4.354-8.059 8.089 2.044 2.053 6.523-6.549 1.573 1.579a1.454 1.454 0 1 1-2.051 2.059L61.4 23.688l-1.719 7.25z"/></svg>