<?xml version="1.0" encoding="utf-8"?>
<!-- Generator: Adobe Illustrator 19.1.1, SVG Export Plug-In . SVG Version: 6.00 Build 0)  -->
<svg version="1.1" id="Слой_1" xmlns="http://www.w3.org/2000/svg" xmlns:xlink="http://www.w3.org/1999/xlink" x="0px" y="0px"
	 viewBox="0 0 1024 1024" style="enable-background:new 0 0 1024 1024;" xml:space="preserve">
<style type="text/css">
	.st0{fill:#272727;}
	.st0:hover{fill:#6c1511;}
</style>
<path id="Shape" class="st0" d="M590.2,485.7l84.7-82.7c16.7,28.6,26.1,62.3,26.1,97c0,108.3-89.9,196.1-200.7,196.1
	c-36.6,0-70-9.2-99.3-25.5l82.6-80.7c4.2,0,7.3,1,11.5,1c53.3,0,96.2-41.9,96.2-94C591.2,492.8,591.2,489.8,590.2,485.7L590.2,485.7
	z M591.2,496.9c0,52.1-42.9,94-96.2,94c-4.2,0-7.3,0-11.5-1L401,670.6c29.3,16.3,63.8,25.5,99.3,25.5C611.1,696.1,701,608.3,701,500
	c0-35.8-9.4-68.4-26.1-97l-84.7,82.7C591.2,489.8,591.2,492.8,591.2,496.9L591.2,496.9z M1023,499v-1c0,0,0,0,0-1v-1v-1l0,0
	c-1-6.1-3.1-11.2-7.3-16.3c-1-2-2.1-3.1-4.2-4.1c-33.5-38.8-73.2-72.5-112.9-104.2c-8.4-6.1-16.7-12.3-25.1-18.4c-1-1-2.1-2-4.2-3.1
	c-8.4-6.1-16.7-12.3-26.1-18.4c0,0-1,0-1-1c-18.8-12.3-37.6-24.5-56.4-34.7L674.9,404c16.7,28.6,26.1,62.3,26.1,97
	c0,108.3-89.9,196.1-200.7,196.1c-36.6,0-70-9.2-99.3-25.5l-85.7,83.8c12.5,5.1,26.1,9.2,39.7,13.3h1c6.3,2,12.5,3.1,18.8,5.1
	c1,0,2.1,1,3.1,1c7.3,2,13.6,3.1,20.9,5.1c47,10.2,95.1,12.3,143.2,9.2c15.7-1,31.4-3.1,48.1-6.1c36.6-6.1,72.1-17.4,105.6-30.6
	c20.9-8.2,40.8-17.4,60.6-26.6c30.3-15.3,60.6-32.7,88.9-52.1c18.8-13.3,37.6-26.6,55.4-40.9c27.2-21.5,52.3-43.9,77.4-67.4
	c12.5-11.2,24-23.5,34.5-36.8c3.1-3.1,5.2-6.1,7.3-9.2c2.1-3.1,3.1-7.2,4.2-11.2l0,0v-1v-1c0,0,0,0,0-1v-1v-2
	C1024,501,1023,500,1023,499L1023,499z M591.2,496.9c0-4.1,0-7.2-1-11.2L483.6,589.9c4.2,0,7.3,1,11.5,1
	C548.4,590.9,591.2,549,591.2,496.9L591.2,496.9z M483.6,589.9l106.6-104.2l84.7-82.7l111.9-109.3l77.4-75.6
	c6.3-6.1,6.3-15.3,0-21.5c-6.3-6.1-15.7-6.1-22,0L218,806.5c-6.3,6.1-6.3,15.3,0,21.5c3.1,3.1,7.3,4.1,11.5,4.1s8.4-1,11.5-4.1
	l75.3-73.6l85.7-83.8L483.6,589.9L483.6,589.9z"/>
<path id="Shape_1_" class="st0" d="M682.7,268.1c-26.2-9.7-53.4-17.4-80.6-23.2c-61.5-12.6-122.9-13.5-184.4-2.9
	c-55.4,9.7-109.8,30-160.2,54.1c-78.6,38.7-151.1,91.8-213.6,151.8c-12.1,10.6-23.2,22.2-33.3,34.8c-14.1,16.4-14.1,34.8,0,51.2
	c32.2,36.7,70.5,68.6,108.8,98.6c34.3,26.1,70.5,50.3,108.8,71.5L682.7,268.1L682.7,268.1z"/>
</svg>
