<?xml version="1.0" encoding="utf-8"?>
<!-- Generator: Adobe Illustrator 18.1.1, SVG Export Plug-In . SVG Version: 6.00 Build 0)  -->
<svg version="1.1" id="Слой_1" xmlns="http://www.w3.org/2000/svg" xmlns:xlink="http://www.w3.org/1999/xlink" x="0px" y="0px"
	 viewBox="20.9 29.7 45.8 16.1" enable-background="new 20.9 29.7 45.8 16.1" xml:space="preserve">
<g id="Слой_1_1_" display="none">
	
		<image display="inline" overflow="visible" enable-background="new    " width="1164" height="970" xlink:href="9F69FFCA.jpeg"  transform="matrix(9.501366e-002 0 0 9.491571e-002 -15.2702 -5.9019)">
	</image>
</g>
<g id="Слой_3">
</g>
<g id="Слой_2">
</g>
<g id="Слой_4">
</g>
<path display="none" fill="#4DB1B0" d="M12.7,22.9c24.6,32.8,24.6,32.8,24.6,32.8l23.9-32.9C37.7,24.8,35.8,24.7,12.7,22.9z"/>
<polygon fill="#303030" points="22.5,30.9 27.4,30.9 27.4,36.8 30.1,36.8 30.1,30.9 35,30.9 35,44.4 30.1,44.4 30.1,41.7 27.4,41.7 
	27.4,44.4 22.5,44.4 22.5,41.7 20.9,41.7 20.9,36.8 22.5,36.8 "/>
<g id="XMLID_1_">
	<g>
		<rect x="37.6" y="30.9" fill="#303030" width="4.9" height="13.4"/>
	</g>
</g>
<g id="XMLID_2_">
	<g>
		<rect x="45.2" y="30.9" fill="#00D8D8" width="4.9" height="13.4"/>
	</g>
</g>
<circle fill="#FFFFFF" stroke="#303030" stroke-width="6" stroke-miterlimit="10" cx="58.9" cy="37.7" r="4.8"/>
<rect x="45.2" y="43.9" fill="#00B2B2" width="4.9" height="0.4"/>
</svg>
